
<svg id="visual" viewBox="0 0 960 540" width="960" height="540" xmlns="http://www.w3.org/2000/svg" xmlns:xlink="http://www.w3.org/1999/xlink" version="1.1"><rect x="0" y="0" width="960" height="540" fill="#102a3e"></rect><path d="M480 540L486.3 532.5C492.7 525 505.3 510 526.5 495C547.7 480 577.3 465 579.3 450C581.3 435 555.7 420 544.2 405C532.7 390 535.3 375 557.5 360C579.7 345 621.3 330 624.8 315C628.3 300 593.7 285 592.7 270C591.7 255 624.3 240 631 225C637.7 210 618.3 195 609.7 180C601 165 603 150 616.2 135C629.3 120 653.7 105 635.8 90C618 75 558 60 537.5 45C517 30 536 15 545.5 7.5L555 0L960 0L960 7.5C960 15 960 30 960 45C960 60 960 75 960 90C960 105 960 120 960 135C960 150 960 165 960 180C960 195 960 210 960 225C960 240 960 255 960 270C960 285 960 300 960 315C960 330 960 345 960 360C960 375 960 390 960 405C960 420 960 435 960 450C960 465 960 480 960 495C960 510 960 525 960 532.5L960 540Z" fill="#d28f8f"></path><path d="M577 540L595 532.5C613 525 649 510 675 495C701 480 717 465 720.2 450C723.3 435 713.7 420 691.8 405C670 390 636 375 638 360C640 345 678 330 700 315C722 300 728 285 730.2 270C732.3 255 730.7 240 730.3 225C730 210 731 195 704.5 180C678 165 624 150 611.5 135C599 120 628 105 647.7 90C667.3 75 677.7 60 677.2 45C676.7 30 665.3 15 659.7 7.5L654 0L960 0L960 7.5C960 15 960 30 960 45C960 60 960 75 960 90C960 105 960 120 960 135C960 150 960 165 960 180C960 195 960 210 960 225C960 240 960 255 960 270C960 285 960 300 960 315C960 330 960 345 960 360C960 375 960 390 960 405C960 420 960 435 960 450C960 465 960 480 960 495C960 510 960 525 960 532.5L960 540Z" fill="#e4747d"></path><path d="M677 540L679.3 532.5C681.7 525 686.3 510 709.5 495C732.7 480 774.3 465 797 450C819.7 435 823.3 420 823.5 405C823.7 390 820.3 375 817 360C813.7 345 810.3 330 791 315C771.7 300 736.3 285 723.3 270C710.3 255 719.7 240 740.7 225C761.7 210 794.3 195 799.8 180C805.3 165 783.7 150 781.5 135C779.3 120 796.7 105 797 90C797.3 75 780.7 60 764.7 45C748.7 30 733.3 15 725.7 7.5L718 0L960 0L960 7.5C960 15 960 30 960 45C960 60 960 75 960 90C960 105 960 120 960 135C960 150 960 165 960 180C960 195 960 210 960 225C960 240 960 255 960 270C960 285 960 300 960 315C960 330 960 345 960 360C960 375 960 390 960 405C960 420 960 435 960 450C960 465 960 480 960 495C960 510 960 525 960 532.5L960 540Z" fill="#f35170"></path><path d="M852 540L856.3 532.5C860.7 525 869.3 510 873.3 495C877.3 480 876.7 465 881.7 450C886.7 435 897.3 420 896 405C894.7 390 881.3 375 862.8 360C844.3 345 820.7 330 812.3 315C804 300 811 285 816.8 270C822.7 255 827.3 240 835.5 225C843.7 210 855.3 195 848.5 180C841.7 165 816.3 150 805.7 135C795 120 799 105 800.2 90C801.3 75 799.7 60 810.5 45C821.3 30 844.7 15 856.3 7.5L868 0L960 0L960 7.5C960 15 960 30 960 45C960 60 960 75 960 90C960 105 960 120 960 135C960 150 960 165 960 180C960 195 960 210 960 225C960 240 960 255 960 270C960 285 960 300 960 315C960 330 960 345 960 360C960 375 960 390 960 405C960 420 960 435 960 450C960 465 960 480 960 495C960 510 960 525 960 532.5L960 540Z" fill="#ff0066"></path></svg>