<svg id="visual" viewBox="0 0 960 540" width="960" height="540" xmlns="http://www.w3.org/2000/svg" xmlns:xlink="http://www.w3.org/1999/xlink" version="1.1"><rect x="0" y="0" width="960" height="540" fill="#102a3e"></rect><path d="M0 268L13.3 271.7C26.7 275.3 53.3 282.7 80 294.7C106.7 306.7 133.3 323.3 160 324.3C186.7 325.3 213.3 310.7 240 304.2C266.7 297.7 293.3 299.3 320 311.8C346.7 324.3 373.3 347.7 400 349.7C426.7 351.7 453.3 332.3 480 331.8C506.7 331.3 533.3 349.7 560 353.3C586.7 357 613.3 346 640 341.2C666.7 336.3 693.3 337.7 720 345.2C746.7 352.7 773.3 366.3 800 356.3C826.7 346.3 853.3 312.7 880 301.2C906.7 289.7 933.3 300.3 946.7 305.7L960 311L960 541L946.7 541C933.3 541 906.7 541 880 541C853.3 541 826.7 541 800 541C773.3 541 746.7 541 720 541C693.3 541 666.7 541 640 541C613.3 541 586.7 541 560 541C533.3 541 506.7 541 480 541C453.3 541 426.7 541 400 541C373.3 541 346.7 541 320 541C293.3 541 266.7 541 240 541C213.3 541 186.7 541 160 541C133.3 541 106.7 541 80 541C53.3 541 26.7 541 13.3 541L0 541Z" fill="#d28f8f"></path><path d="M0 323L13.3 333.2C26.7 343.3 53.3 363.7 80 378.2C106.7 392.7 133.3 401.3 160 403C186.7 404.7 213.3 399.3 240 387.2C266.7 375 293.3 356 320 357.2C346.7 358.3 373.3 379.7 400 392C426.7 404.3 453.3 407.7 480 409C506.7 410.3 533.3 409.7 560 409.5C586.7 409.3 613.3 409.7 640 394.7C666.7 379.7 693.3 349.3 720 342.3C746.7 335.3 773.3 351.7 800 362.7C826.7 373.7 853.3 379.3 880 379C906.7 378.7 933.3 372.3 946.7 369.2L960 366L960 541L946.7 541C933.3 541 906.7 541 880 541C853.3 541 826.7 541 800 541C773.3 541 746.7 541 720 541C693.3 541 666.7 541 640 541C613.3 541 586.7 541 560 541C533.3 541 506.7 541 480 541C453.3 541 426.7 541 400 541C373.3 541 346.7 541 320 541C293.3 541 266.7 541 240 541C213.3 541 186.7 541 160 541C133.3 541 106.7 541 80 541C53.3 541 26.7 541 13.3 541L0 541Z" fill="#e4747d"></path><path d="M0 379L13.3 380.3C26.7 381.7 53.3 384.3 80 397.5C106.7 410.7 133.3 434.3 160 447.2C186.7 460 213.3 462 240 462C266.7 462 293.3 460 320 458C346.7 456 373.3 454 400 443.2C426.7 432.3 453.3 412.7 480 405.3C506.7 398 533.3 403 560 414.8C586.7 426.7 613.3 445.3 640 448.5C666.7 451.7 693.3 439.3 720 438C746.7 436.7 773.3 446.3 800 446.5C826.7 446.7 853.3 437.3 880 428.3C906.7 419.3 933.3 410.7 946.7 406.3L960 402L960 541L946.7 541C933.3 541 906.7 541 880 541C853.3 541 826.7 541 800 541C773.3 541 746.7 541 720 541C693.3 541 666.7 541 640 541C613.3 541 586.7 541 560 541C533.3 541 506.7 541 480 541C453.3 541 426.7 541 400 541C373.3 541 346.7 541 320 541C293.3 541 266.7 541 240 541C213.3 541 186.7 541 160 541C133.3 541 106.7 541 80 541C53.3 541 26.7 541 13.3 541L0 541Z" fill="#f35170"></path><path d="M0 478L13.3 480.3C26.7 482.7 53.3 487.3 80 489.5C106.7 491.7 133.3 491.3 160 494.2C186.7 497 213.3 503 240 502.3C266.7 501.7 293.3 494.3 320 484C346.7 473.7 373.3 460.3 400 455.7C426.7 451 453.3 455 480 458.2C506.7 461.3 533.3 463.7 560 468.2C586.7 472.7 613.3 479.3 640 475.7C666.7 472 693.3 458 720 452C746.7 446 773.3 448 800 448.5C826.7 449 853.3 448 880 454.2C906.7 460.3 933.3 473.7 946.7 480.3L960 487L960 541L946.7 541C933.3 541 906.7 541 880 541C853.3 541 826.7 541 800 541C773.3 541 746.7 541 720 541C693.3 541 666.7 541 640 541C613.3 541 586.7 541 560 541C533.3 541 506.7 541 480 541C453.3 541 426.7 541 400 541C373.3 541 346.7 541 320 541C293.3 541 266.7 541 240 541C213.3 541 186.7 541 160 541C133.3 541 106.7 541 80 541C53.3 541 26.7 541 13.3 541L0 541Z" fill="#ff0066"></path></svg>